{
	"accessors": [
		{
			"bufferView": 0,
			"byteOffset": 0,
			"componentType": 5126,
			"count": 24,
			"max": [
				1.0,
				1.0,
				1.0
			],
			"min": [
				-1.0,
				-1.0,
				-1.0
			],
			"type": "VEC3"
		},
		{
			"bufferView": 1,
			"byteOffset": 0,
			"componentType": 5126,
			"count": 24,
			"type": "VEC3"
		},
		{
			"bufferView": 2,
			"byteOffset": 0,
			"componentType": 5126,
			"count": 24,
			"type": "VEC2"
		},
		{
			"bufferView": 3,
			"byteOffset": 0,
			"componentType": 5123,
			"count": 36,
			"type": "SCALAR"
		},
		{
			"bufferView": 4,
			"byteOffset": 0,
			"componentType": 5126,
			"count": 2498,
			"max": [
				0.9872313737869263,
				0.9975767135620117,
				0.9872314929962158
			],
			"min": [
				-0.9872310161590576,
				-0.9975767135620117,
				-0.9872310161590576
			],
			"type": "VEC3"
		},
		{
			"bufferView": 5,
			"byteOffset": 0,
			"componentType": 5126,
			"count": 2498,
			"type": "VEC3"
		},
		{
			"bufferView": 6,
			"byteOffset": 0,
			"componentType": 5126,
			"count": 2498,
			"type": "VEC2"
		},
		{
			"bufferView": 7,
			"byteOffset": 0,
			"componentType": 5123,
			"count": 11904,
			"type": "SCALAR"
		}
	],
	"asset": {
		"generator": "Gestaltor 2020.1.2 Alpha 'Pilzgutsle' (dev-5c133ca38)",
		"version": "2.0"
	},
	"bufferViews": [
		{
			"buffer": 0,
			"byteLength": 288,
			"byteOffset": 0
		},
		{
			"buffer": 0,
			"byteLength": 288,
			"byteOffset": 288
		},
		{
			"buffer": 0,
			"byteLength": 192,
			"byteOffset": 576
		},
		{
			"buffer": 0,
			"byteLength": 72,
			"byteOffset": 768
		},
		{
			"buffer": 0,
			"byteLength": 29976,
			"byteOffset": 840
		},
		{
			"buffer": 0,
			"byteLength": 29976,
			"byteOffset": 30816
		},
		{
			"buffer": 0,
			"byteLength": 19984,
			"byteOffset": 60792
		},
		{
			"buffer": 0,
			"byteLength": 23808,
			"byteOffset": 80776
		}
	],
	"buffers": [
		{
			"byteLength": 104584,
			"uri": "CubeAndSphere.bin"
		}
	],
	"materials": [
		{
			"doubleSided": true,
			"emissiveFactor": [
				0.0,
				0.0,
				0.0
			],
			"name": "Cube",
			"pbrMetallicRoughness": {
				"baseColorFactor": [
					0.0,
					0.800000011920929,
					0.0,
					1.0
				],
				"metallicFactor": 0.0,
				"roughnessFactor": 0.4000000059604645
			}
		},
		{
			"doubleSided": true,
			"emissiveFactor": [
				0.0,
				0.0,
				0.0
			],
			"name": "Sphere",
			"pbrMetallicRoughness": {
				"baseColorFactor": [
					0.800000011920929,
					0.0,
					0.0,
					1.0
				],
				"metallicFactor": 0.0,
				"roughnessFactor": 0.5
			}
		}
	],
	"meshes": [
		{
			"name": "Cube",
			"primitives": [
				{
					"attributes": {
						"NORMAL": 1,
						"POSITION": 0,
						"TEXCOORD_0": 2
					},
					"indices": 3,
					"material": 0,
					"mode": 4
				}
			]
		},
		{
			"name": "Sphere",
			"primitives": [
				{
					"attributes": {
						"NORMAL": 5,
						"POSITION": 4,
						"TEXCOORD_0": 6
					},
					"indices": 7,
					"material": 1,
					"mode": 4
				}
			]
		}
	],
	"nodes": [
		{
			"mesh": 0,
			"name": "Cube",
			"translation": [
				-2.0,
				0.0,
				0.0
			]
		},
		{
			"mesh": 1,
			"name": "Sphere",
			"translation": [
				2.0,
				0.0,
				0.0
			]
		}
	],
	"scene": 0,
	"scenes": [
		{
			"name": "Scene",
			"nodes": [
				0,
				1
			]
		}
	]
}